<?xml version="1.0" encoding="UTF-8"?>
<!DOCTYPE svg PUBLIC "-//W3C//DTD SVG 1.1//EN" "http://www.w3.org/Graphics/SVG/1.1/DTD/svg11.dtd">
<!-- Creator: CorelDRAW -->
<svg xmlns="http://www.w3.org/2000/svg" xml:space="preserve" width="91.893mm" height="50.3372mm" version="1.1" style="shape-rendering:geometricPrecision; text-rendering:geometricPrecision; image-rendering:optimizeQuality; fill-rule:evenodd; clip-rule:evenodd"
viewBox="0 0 1541.17 844.22"
 xmlns:xlink="http://www.w3.org/1999/xlink"
 xmlns:xodm="http://www.corel.com/coreldraw/odm/2003">
 <defs>
  <style type="text/css">
   <![CDATA[
    .fil1 {fill:white}
    .fil0 {fill:white;fill-rule:nonzero}
   ]]>
  </style>
 </defs>
 <g id="Layer_x0020_1">
  <metadata id="CorelCorpID_0Corel-Layer"/>
  <g id="_105553395943072">
   <path class="fil0" d="M-0 637.41m0 -18.7c18.7,8.5 37.4,14.45 54.39,17 11.05,1.7 35.69,1.7 60.34,1.7l350.15 0 0 -23.8 -319.55 0c13.6,-12.75 22.95,-30.6 25.5,-51.84l0 -561.77 -107.09 0 0 561.77c-0.85,44.19 -22.95,56.94 -63.74,56.94z"/>
   <path class="fil0" d="M507.38 637.41m79.04 0c51.84,0 85.84,-28.9 91.79,-75.64l0 -395.19 -107.09 0 0 395.19c-0.85,44.19 -22.95,56.94 -63.74,56.94 28.9,12.75 56.09,18.7 79.04,18.7zm38.24 -531.17c29.75,0 52.69,-23.8 52.69,-53.54 0,-28.9 -22.95,-52.69 -52.69,-52.69 -28.9,0 -52.69,23.8 -52.69,52.69 0,29.75 23.8,53.54 52.69,53.54z"/>
   <path class="fil0" d="M754.69 637.41m107.09 -75.64l0 -561.77 -107.09 0 0 561.77c5.95,46.74 39.94,75.64 91.79,75.64 22.95,0 50.14,-5.95 79.04,-18.7 -40.79,0 -62.89,-12.75 -63.74,-56.94z"/>
   <path class="fil1" d="M1461.45 2.12c0,3.22 2.76,13.99 3.94,18.64 3.57,13.99 6.64,42.25 6.64,57.6l0 13.42c0,85.05 -54.7,159.04 -111.06,206.63 -6.7,5.65 -51.9,43.26 -58.87,47.73 -3.6,2.31 -11.53,8.41 -14.86,11.26 -5.04,4.32 -10.12,7.49 -15.17,11.66 -51.47,42.53 -96.19,71.05 -131.6,133.85 -10.63,18.85 -23.55,54.18 -23.55,83.06l0 14.82c0,43.06 18.27,89.76 31.73,120.05 7.76,17.45 17.15,33.62 26.36,49.89 3.2,5.65 27.8,46.11 29.45,45.39 2.46,-0.95 -0.64,-6.27 -2.78,-12.05 -12.83,-34.62 -20.52,-65.59 -20.52,-105.15 0,-124.37 104.57,-204.72 173.91,-263.09 9.86,-8.3 20.55,-15.9 29.92,-24.44 8.94,-8.15 20.41,-16.95 29.85,-24.51 19.34,-15.49 39.22,-34.96 56.65,-52.78 74.11,-75.73 90.65,-159.31 42.1,-254.25 -7.32,-14.31 -15.02,-28.74 -23.84,-41.82 -4.5,-6.67 -23.14,-34.76 -27.61,-38.04 -0.48,0.86 -0.71,0.76 -0.71,2.12z"/>
   <path class="fil1" d="M1071.86 197.86l0 12.71c0,30.35 16.88,57.48 32.29,72.89 15.32,15.31 42.81,33.01 72.9,33.01l13.42 0c28.67,0 60.51,-19.25 74.04,-34.68 9.71,-11.07 14.89,-18.37 21.59,-32.77 19.3,-41.52 6.89,-93.08 -22.37,-122.29 -15.67,-15.64 -44.64,-34.05 -75.37,-34.05l-7.77 0c-30.78,0 -59.34,16.1 -75.03,31.58 -15.33,15.12 -33.7,43.73 -33.7,73.61z"/>
   <path class="fil1" d="M952.43 318.4c0,21.51 0.35,25.54 12.25,46.35 19.41,33.94 93.01,74.72 113.05,119.22 18.74,41.6 1.07,70.45 1.07,76.59 0,1.28 -0.04,0.08 0.71,1.41 4.42,-2.96 16.95,-26.75 20.18,-33.47 8.94,-18.54 11.59,-30.67 11.59,-51.95 0,-52.73 -77.61,-86.28 -110.05,-128.58 -10.21,-13.31 -23.44,-36.56 -21.97,-59.92l4 -31.8c-2.49,3.17 -2.54,1.42 -5.45,5.64 -1.63,2.36 -3.27,4.53 -5.03,6.97 -7.03,9.71 -20.34,37.19 -20.34,49.55z"/>
   <path class="fil0" d="M513.46 841.76m0 -124.52l22.16 0 0 50.3 58.21 0 0 -50.3 22.16 0 0 124.52 -22.16 0 0 -55.22 -58.21 0 0 55.22 -22.16 0 0 -124.52zm123.99 124.52m64.37 -50.65c0,-2.64 -0.35,-5.27 -1.05,-7.74 -0.88,-2.46 -2.11,-4.57 -3.69,-6.51 -1.58,-1.93 -3.69,-3.34 -6.16,-4.57 -2.64,-1.05 -5.63,-1.58 -8.97,-1.58 -6.33,0 -11.61,1.94 -16,5.63 -4.4,3.87 -6.86,8.79 -7.39,14.77l43.26 0zm21.1 9.5c0,0.88 0,1.94 0,2.81 0,0.88 0,1.93 -0.17,2.81l-64.19 0c0.17,2.99 1.05,5.8 2.46,8.26 1.23,2.64 2.99,4.75 5.28,6.51 2.29,1.94 4.75,3.34 7.56,4.4 2.81,1.05 5.8,1.58 8.79,1.58 5.28,0 9.67,-1.05 13.37,-2.99 3.69,-1.94 6.68,-4.57 8.97,-7.91l14.07 11.26c-8.27,11.26 -20.4,16.88 -36.23,16.88 -6.51,0 -12.66,-1.05 -18.11,-3.16 -5.45,-1.94 -10.2,-4.93 -14.25,-8.62 -4.05,-3.69 -7.21,-8.44 -9.5,-13.89 -2.29,-5.45 -3.52,-11.61 -3.52,-18.47 0,-6.86 1.23,-13.01 3.52,-18.64 2.29,-5.45 5.28,-10.2 9.32,-14.25 4.05,-3.87 8.79,-6.86 14.25,-9.15 5.45,-2.11 11.26,-3.16 17.59,-3.16 5.8,0 11.26,0.88 16.36,2.81 4.92,1.94 9.14,4.93 12.84,8.62 3.69,3.87 6.51,8.62 8.62,14.25 1.93,5.8 2.99,12.49 2.99,20.05z"/>
   <path class="fil0" d="M736.29 841.76m58.39 -10.73l-0.53 0c-2.11,3.69 -5.45,6.86 -10.2,9.15 -4.75,2.46 -10.02,3.69 -16,3.69 -3.34,0 -6.86,-0.35 -10.55,-1.23 -3.69,-1.05 -7.21,-2.46 -10.2,-4.57 -3.16,-1.94 -5.8,-4.75 -7.74,-8.09 -2.11,-3.34 -3.16,-7.39 -3.16,-12.31 0,-6.33 1.76,-11.43 5.45,-15.12 3.52,-3.69 8.09,-6.68 13.72,-8.62 5.63,-1.93 11.96,-3.34 18.82,-4.05 6.86,-0.53 13.54,-0.88 20.05,-0.88l0 -2.11c0,-5.28 -1.94,-9.15 -5.63,-11.78 -3.87,-2.46 -8.44,-3.69 -13.72,-3.69 -4.4,0 -8.79,0.88 -12.84,2.81 -4.05,1.93 -7.56,4.22 -10.2,6.86l-10.9 -12.84c4.75,-4.4 10.38,-7.74 16.71,-10.02 6.16,-2.29 12.49,-3.34 18.99,-3.34 7.56,0 13.72,1.05 18.64,3.16 4.75,2.11 8.62,4.92 11.43,8.27 2.81,3.34 4.75,7.21 5.98,11.43 1.05,4.22 1.58,8.44 1.58,12.66l0 51.35 -19.7 0 0 -10.73zm-0.35 -27.79l-4.75 0c-3.34,0 -7.03,0.18 -10.73,0.35 -3.69,0.35 -7.21,1.05 -10.38,1.93 -3.17,1.05 -5.8,2.46 -7.91,4.22 -2.11,1.93 -3.17,4.4 -3.17,7.56 0,1.94 0.53,3.69 1.41,4.92 0.88,1.41 1.94,2.46 3.34,3.34 1.41,0.88 2.99,1.41 4.75,1.76 1.76,0.35 3.52,0.53 5.28,0.53 7.21,0 12.84,-1.94 16.53,-5.8 3.69,-3.87 5.63,-9.15 5.63,-15.83l0 -2.99zm45.02 38.52m0 -132.96l21.1 0 0 132.96 -21.1 0 0 -132.96zm34.65 132.96m0 -67.53l0 -16.88 14.77 0 0 -24.45 20.75 0 0 24.45 21.11 0 0 16.88 -21.11 0 0 39.22c0,3.69 0.7,6.86 2.11,9.32 1.23,2.46 4.22,3.69 8.97,3.69 1.41,0 2.99,-0.18 4.57,-0.53 1.58,-0.18 3.16,-0.7 4.4,-1.23l0.7 16.53c-1.94,0.7 -4.05,1.23 -6.68,1.76 -2.64,0.35 -5.1,0.53 -7.39,0.53 -5.63,0 -10.2,-0.7 -13.72,-2.46 -3.52,-1.58 -6.33,-3.69 -8.26,-6.51 -2.11,-2.64 -3.52,-5.8 -4.22,-9.5 -0.88,-3.52 -1.23,-7.39 -1.23,-11.43l0 -39.39 -14.77 0zm72.28 67.53m46.61 -86.88c5.45,0 10.2,0.88 14.25,2.81 3.87,1.94 7.03,4.57 9.67,7.74 2.46,3.17 4.22,6.86 5.45,10.9 1.23,4.05 1.76,8.26 1.76,12.66l0 52.76 -21.1 0 0 -46.43c0,-2.46 -0.18,-5.1 -0.53,-7.74 -0.35,-2.64 -1.05,-4.92 -2.11,-7.21 -1.23,-2.11 -2.81,-3.87 -4.75,-5.28 -2.11,-1.41 -4.93,-2.11 -8.27,-2.11 -3.34,0 -6.33,0.7 -8.79,1.94 -2.46,1.23 -4.57,2.99 -6.16,5.1 -1.58,2.29 -2.81,4.75 -3.69,7.39 -0.88,2.64 -1.23,5.45 -1.23,8.27l0 46.08 -21.1 0 0 -132.96 21.1 0 0 60.32 0.35 0c0.88,-1.76 2.11,-3.52 3.69,-5.28 1.58,-1.58 3.34,-3.17 5.45,-4.57 2.11,-1.23 4.57,-2.29 7.21,-3.16 2.64,-0.88 5.63,-1.23 8.79,-1.23z"/>
  </g>
 </g>
</svg>
