<?xml version="1.0" encoding="UTF-8"?>
<!DOCTYPE svg PUBLIC "-//W3C//DTD SVG 1.1//EN" "http://www.w3.org/Graphics/SVG/1.1/DTD/svg11.dtd">
<!-- Creator: CorelDRAW -->
<svg xmlns="http://www.w3.org/2000/svg" xml:space="preserve" width="91.893mm" height="50.3371mm" version="1.1" style="shape-rendering:geometricPrecision; text-rendering:geometricPrecision; image-rendering:optimizeQuality; fill-rule:evenodd; clip-rule:evenodd"
viewBox="0 0 9219.72 5050.37"
 xmlns:xlink="http://www.w3.org/1999/xlink"
 xmlns:xodm="http://www.corel.com/coreldraw/odm/2003">
 <defs>
  <style type="text/css">
   <![CDATA[
    .fil1 {fill:#F469BB}
    .fil0 {fill:#F469BB;fill-rule:nonzero}
   ]]>
  </style>
 </defs>
 <g id="Layer_x0020_1">
  <metadata id="CorelCorpID_0Corel-Layer"/>
  <g id="_105553395943072">
   <path class="fil0" d="M-0 3813.16m0 -111.85c111.85,50.84 223.71,86.43 325.39,101.69 66.09,10.16 213.53,10.16 360.97,10.16l2094.7 0 0 -142.36 -1911.67 0c81.35,-76.26 137.27,-183.03 152.53,-310.13l0 -3360.67 -640.61 0 0 3360.67c-5.09,264.37 -137.27,340.64 -381.32,340.64z"/>
   <path class="fil0" d="M3035.27 3813.16m472.83 0c310.14,0 513.5,-172.86 549.1,-452.49l0 -2364.16 -640.61 0 0 2364.16c-5.09,264.37 -137.27,340.64 -381.32,340.64 172.86,76.26 335.56,111.85 472.83,111.85zm228.79 -3177.63c177.95,0 315.22,-142.36 315.22,-320.31 0,-172.86 -137.27,-315.22 -315.22,-315.22 -172.87,0 -315.22,142.36 -315.22,315.22 0,177.95 142.35,320.31 315.22,320.31z"/>
   <path class="fil0" d="M4514.79 3813.16m640.61 -452.49l0 -3360.67 -640.61 0 0 3360.67c35.59,279.63 238.96,452.49 549.09,452.49 137.27,0 299.97,-35.59 472.84,-111.85 -244.05,0 -376.23,-76.27 -381.32,-340.64z"/>
   <path class="fil1" d="M8742.79 12.67c0,19.25 16.49,83.68 23.6,111.54 21.38,83.72 39.74,252.72 39.74,344.59l0 80.25c0,508.81 -327.24,951.45 -664.41,1236.1 -40.05,33.81 -310.47,258.78 -352.18,285.55 -21.56,13.84 -68.95,50.32 -88.88,67.38 -30.16,25.84 -60.54,44.79 -90.74,69.75 -307.89,254.44 -575.45,425.04 -787.29,800.7 -63.59,112.77 -140.85,324.13 -140.85,496.89l0 88.68c0,257.61 109.3,536.97 189.84,718.19 46.41,104.41 102.61,201.11 157.69,298.43 19.15,33.82 166.32,275.87 176.18,271.52 14.69,-5.67 -3.81,-37.48 -16.62,-72.07 -76.73,-207.11 -122.76,-392.35 -122.76,-629.02 0,-744.01 625.59,-1224.69 1040.37,-1573.9 58.97,-49.66 122.95,-95.1 179,-146.2 53.46,-48.74 122.12,-101.37 178.59,-146.6 115.69,-92.67 234.6,-209.14 338.92,-315.72 443.36,-453.01 542.27,-953.04 251.86,-1521.01 -43.79,-85.63 -89.87,-171.92 -142.63,-250.16 -26.9,-39.9 -138.44,-207.96 -165.2,-227.57 -2.9,5.16 -4.22,4.52 -4.22,12.67z"/>
   <path class="fil1" d="M6412.2 1183.62l0 76.02c0,181.57 100.98,343.87 193.2,436.06 91.66,91.61 256.12,197.45 436.08,197.45l80.25 0c171.54,0 361.97,-115.18 442.92,-207.47 58.1,-66.25 89.09,-109.9 129.16,-196.06 115.47,-248.37 41.2,-556.83 -133.84,-731.58 -93.73,-93.58 -267.06,-203.7 -450.91,-203.7l-46.46 0c-184.12,0 -354.98,96.33 -448.82,188.9 -91.7,90.46 -201.58,261.59 -201.58,440.38z"/>
   <path class="fil1" d="M5697.72 1904.75c0,128.7 2.07,152.76 73.26,277.27 116.12,203.01 556.4,447.02 676.3,713.19 112.12,248.87 6.42,421.46 6.42,458.16 0,7.69 -0.26,0.45 4.22,8.44 26.43,-17.7 101.37,-160.05 120.75,-200.22 53.47,-110.93 69.31,-183.49 69.31,-310.81 0,-315.47 -464.31,-516.15 -658.33,-769.2 -61.06,-79.65 -140.21,-218.71 -131.44,-358.45l23.92 -190.25c-14.92,18.99 -15.21,8.47 -32.63,33.73 -9.73,14.13 -19.54,27.12 -30.1,41.71 -42.06,58.11 -121.68,222.48 -121.68,296.42z"/>
   <path class="fil0" d="M3071.68 5035.65m0 -744.89l132.57 0 0 300.9 348.25 0 0 -300.9 132.57 0 0 744.89 -132.57 0 0 -330.36 -348.25 0 0 330.36 -132.57 0 0 -744.89zm741.74 744.89m385.07 -303.01c0,-15.78 -2.11,-31.55 -6.31,-46.29 -5.27,-14.73 -12.63,-27.35 -22.09,-38.93 -9.47,-11.57 -22.1,-19.99 -36.83,-27.35 -15.78,-6.31 -33.66,-9.47 -53.66,-9.47 -37.87,0 -69.44,11.58 -95.74,33.67 -26.31,23.15 -41.04,52.6 -44.19,88.37l258.81 0zm126.25 56.82c0,5.26 0,11.58 0,16.84 0,5.26 0,11.57 -1.04,16.84l-384.02 0c1.04,17.88 6.31,34.71 14.73,49.44 7.36,15.78 17.88,28.41 31.56,38.93 13.68,11.58 28.4,20 45.24,26.31 16.83,6.31 34.71,9.46 52.6,9.46 31.56,0 57.86,-6.31 79.95,-17.88 22.1,-11.58 39.98,-27.36 53.66,-47.35l84.18 67.33c-49.45,67.33 -122.05,101 -216.74,101 -38.93,0 -75.75,-6.31 -108.37,-18.93 -32.62,-11.58 -61.02,-29.47 -85.22,-51.56 -24.2,-22.09 -43.14,-50.5 -56.82,-83.11 -13.68,-32.62 -21.04,-69.44 -21.04,-110.47 0,-41.03 7.36,-77.85 21.04,-111.52 13.68,-32.62 31.56,-61.02 55.76,-85.22 24.2,-23.15 52.6,-41.04 85.22,-54.71 32.62,-12.62 67.33,-18.93 105.21,-18.93 34.72,0 67.33,5.26 97.85,16.83 29.46,11.58 54.7,29.47 76.8,51.56 22.09,23.15 38.92,51.55 51.55,85.22 11.57,34.71 17.88,74.7 17.88,119.94z"/>
   <path class="fil0" d="M4404.7 5035.65m349.29 -64.18l-3.15 0c-12.63,22.09 -32.62,41.04 -61.02,54.71 -28.41,14.73 -59.97,22.09 -95.75,22.09 -19.99,0 -41.03,-2.1 -63.13,-7.36 -22.09,-6.31 -43.13,-14.73 -61.02,-27.35 -18.93,-11.58 -34.71,-28.4 -46.29,-48.4 -12.62,-19.99 -18.93,-44.19 -18.93,-73.64 0,-37.87 10.51,-68.39 32.62,-90.48 21.04,-22.1 48.39,-39.98 82.06,-51.56 33.67,-11.57 71.55,-19.99 112.57,-24.2 41.04,-3.15 81.02,-5.26 119.95,-5.26l0 -12.62c0,-31.56 -11.58,-54.71 -33.67,-70.49 -23.15,-14.73 -50.5,-22.09 -82.06,-22.09 -26.31,0 -52.6,5.26 -76.8,16.84 -24.2,11.57 -45.24,25.24 -61.02,41.03l-65.24 -76.8c28.4,-26.3 62.07,-46.29 99.95,-59.97 36.82,-13.68 74.7,-19.99 113.62,-19.99 45.24,0 82.07,6.31 111.53,18.93 28.4,12.62 51.55,29.46 68.39,49.45 16.84,19.99 28.4,43.13 35.77,68.39 6.31,25.25 9.47,50.5 9.47,75.75l0 307.21 -117.84 0 0 -64.18zm-2.1 -166.23l-28.41 0c-19.99,0 -42.08,1.05 -64.17,2.11 -22.09,2.1 -43.14,6.31 -62.07,11.57 -18.94,6.31 -34.72,14.73 -47.35,25.25 -12.62,11.57 -18.94,26.3 -18.94,45.24 0,11.58 3.16,22.09 8.42,29.46 5.27,8.42 11.58,14.73 20,20 8.42,5.26 17.88,8.41 28.4,10.51 10.52,2.11 21.04,3.16 31.56,3.16 43.13,0 76.8,-11.58 98.9,-34.72 22.09,-23.15 33.67,-54.71 33.67,-94.68l0 -17.89zm269.34 230.41m0 -795.39l126.25 0 0 795.39 -126.25 0 0 -795.39zm207.26 795.39m0 -404l0 -101 88.37 0 0 -146.24 124.15 0 0 146.24 126.26 0 0 101 -126.26 0 0 234.61c0,22.09 4.2,41.04 12.62,55.76 7.36,14.73 25.25,22.09 53.66,22.09 8.42,0 17.89,-1.05 27.36,-3.16 9.47,-1.05 18.93,-4.2 26.3,-7.36l4.21 98.9c-11.58,4.21 -24.2,7.36 -39.98,10.52 -15.78,2.11 -30.51,3.16 -44.19,3.16 -33.67,0 -61.02,-4.21 -82.07,-14.73 -21.04,-9.47 -37.87,-22.1 -49.44,-38.93 -12.63,-15.78 -21.04,-34.72 -25.25,-56.82 -5.26,-21.04 -7.36,-44.19 -7.36,-68.39l0 -235.67 -88.37 0zm432.41 404m278.81 -519.73c32.61,0 61.02,5.26 85.22,16.83 23.15,11.58 42.08,27.36 57.86,46.29 14.73,18.94 25.25,41.04 32.62,65.24 7.36,24.2 10.51,49.44 10.51,75.75l0 315.63 -126.25 0 0 -277.76c0,-14.73 -1.05,-30.51 -3.16,-46.29 -2.1,-15.78 -6.31,-29.46 -12.62,-43.13 -7.36,-12.63 -16.84,-23.15 -28.4,-31.56 -12.63,-8.42 -29.47,-12.63 -49.45,-12.63 -19.99,0 -37.87,4.21 -52.6,11.58 -14.73,7.36 -27.36,17.89 -36.82,30.51 -9.47,13.68 -16.84,28.4 -22.09,44.19 -5.27,15.78 -7.37,32.62 -7.37,49.45l0 275.65 -126.25 0 0 -795.39 126.25 0 0 360.88 2.11 0c5.27,-10.52 12.63,-21.05 22.09,-31.56 9.47,-9.47 20,-18.94 32.62,-27.36 12.62,-7.36 27.36,-13.68 43.13,-18.93 15.78,-5.27 33.67,-7.36 52.61,-7.36z"/>
  </g>
 </g>
</svg>
